HIERARCHY
ROOT hip
{
	OFFSET 0.000000 0.000000 0.000000 
	CHANNELS 6 Xposition Yposition Zposition Xrotation Zrotation Yrotation
	JOINT abdomen
	{
		OFFSET 0.000000 3.402643 0.000000 
		CHANNELS 3 Xrotation Zrotation Yrotation
		JOINT chest
		{
			OFFSET 0.000000 8.438565 -0.680529 
			CHANNELS 3 Xrotation Zrotation Yrotation
			JOINT neck
			{
				OFFSET 0.000000 10.207942 -0.272212 
				CHANNELS 3 Xrotation Zrotation Yrotation
				JOINT head
				{
					OFFSET 0.000000 3.130431 0.000000 
					CHANNELS 3 Xrotation Zrotation Yrotation
					End Site
					{
						OFFSET 0.000000 3.130435 0.000000 
					}
				}
			}
			JOINT lCollar
			{
				OFFSET 3.470700 6.669187 -0.816635 
				CHANNELS 3 Yrotation Zrotation Xrotation
				JOINT lShldr
				{
					OFFSET 3.198488 0.000000 0.000000 
					CHANNELS 3 Zrotation Yrotation Xrotation
					JOINT lForeArm
					{
						OFFSET 10.139888 0.000000 0.000000 
						CHANNELS 3 Yrotation Zrotation Xrotation
						JOINT lHand
						{
							OFFSET 8.370511 0.000000 0.000000 
							CHANNELS 3 Zrotation Yrotation Xrotation
							End Site
							{
								OFFSET 4.083176 0.000000 0.000000 
							}
						}
					}
				}
			}
			JOINT rCollar
			{
				OFFSET -3.470700 6.669187 -0.816635 
				CHANNELS 3 Yrotation Zrotation Xrotation
				JOINT rShldr
				{
					OFFSET -3.198488 0.000000 0.000000 
					CHANNELS 3 Zrotation Yrotation Xrotation
					JOINT rForeArm
					{
						OFFSET -10.139888 0.000000 0.000000 
						CHANNELS 3 Yrotation Zrotation Xrotation
						JOINT rHand
						{
							OFFSET -8.370511 0.000000 0.000000 
							CHANNELS 3 Zrotation Yrotation Xrotation
							End Site
							{
								OFFSET -4.083176 0.000000 0.000000 
							}
						}
					}
				}
			}
		}
	}
	JOINT lThigh
	{
		OFFSET 5.308129 -1.633274 1.361059 
		CHANNELS 3 Xrotation Zrotation Yrotation
		JOINT lShin
		{
			OFFSET -2.041588 -20.007561 0.000000 
			CHANNELS 3 Xrotation Zrotation Yrotation
			JOINT lFoot
			{
				OFFSET 0.000000 -19.190928 -1.224953 
				CHANNELS 3 Xrotation Yrotation Zrotation
				End Site
				{
					OFFSET 0.000000 -2.449906 4.627600 
				}
			}
		}
	}
	JOINT rThigh
	{
		OFFSET -5.308129 -1.633274 1.361059 
		CHANNELS 3 Xrotation Zrotation Yrotation
		JOINT rShin
		{
			OFFSET 2.041588 -20.007561 0.000000 
			CHANNELS 3 Xrotation Zrotation Yrotation
			JOINT rFoot
			{
				OFFSET 0.000000 -19.190928 -1.224953 
				CHANNELS 3 Xrotation Yrotation Zrotation
				End Site
				{
					OFFSET 0.000000 -2.449906 4.627600 
				}
			}
		}
	}
}
MOTION
Frames: 20
Frame Time: 0.033333
0.471289 40.431602 2.683983 -0.019531 0.000000 0.000000 -12.353839 -1.147256 -9.171782 0.000000 0.000000 0.000000 5.156250 -0.009766 0.000000 -0.199206 0.337391 9.209168 1.992188 -2.001953 0.000341 14.490629 -43.615501 -90.734062 -102.174118 1.539431 21.591446 21.171669 -57.321487 15.734148 -2.001953 1.992188 0.000000 60.972717 -51.240307 -0.306701 60.106888 -1.413246 20.224159 -22.645399 1.271868 -21.450012 -6.199813 9.761021 17.707302 23.956671 -1.475642 -2.219182 -14.645934 6.327028 -5.388045 11.848194 -4.442441 -23.017719 11.988483 1.751338 1.389011 -18.026335 -7.172414 6.525099 
0.471289 40.431602 2.683983 -0.019531 0.000000 0.000000 -12.779241 -1.148126 -8.898402 0.000000 0.000000 0.000000 5.156250 -0.009766 0.000000 0.211521 0.289413 8.935679 1.992188 -2.001953 0.000341 18.041882 -34.999233 -97.765366 -98.606514 1.569129 21.477875 21.171669 -57.321487 15.734148 -2.001953 1.992188 0.000000 60.856186 -51.803959 -0.216015 60.363605 -1.422603 20.223412 -22.619801 1.066122 -21.455721 -6.053316 9.750428 17.720490 23.918951 -1.469803 -2.186854 -14.734656 6.308057 -5.460764 12.172819 -4.345518 -23.023687 11.990906 1.734135 1.387586 -17.886005 -7.178629 6.582944 
0.471289 40.431602 2.683983 -0.019531 0.000000 0.000000 -13.206109 -1.139316 -8.624825 0.000000 0.000000 0.000000 5.156250 -0.009766 0.000000 0.622707 0.241356 8.662196 1.992188 -2.001953 0.000341 20.088127 -26.145502 -103.584007 -95.036217 1.589498 21.354914 21.171669 -57.321487 15.734148 -2.001953 1.992188 0.000000 60.727718 -52.375324 -0.115656 60.619965 -1.423177 20.225653 -22.594080 0.856703 -21.470240 -5.917418 9.753628 17.743792 23.888903 -1.469942 -2.204778 -14.841806 6.332423 -5.487486 12.482693 -4.267303 -23.023111 11.979362 1.743691 1.397594 -17.732288 -7.201681 6.643767 
0.471289 40.431602 2.683983 -0.019531 0.000000 0.000000 -13.027306 -1.186751 -8.888843 0.000000 0.000000 0.000000 5.156250 -0.009766 0.000000 0.457178 0.299060 8.935678 1.992188 -2.001953 0.000341 20.577328 -19.673525 -107.818962 -91.176994 1.605755 21.222410 21.171669 -57.321487 15.734148 -2.001953 1.992188 0.000000 60.537018 -51.996559 0.279989 60.512260 -1.416061 20.231789 -22.640432 0.812517 -21.534054 -5.965420 9.760277 17.722866 23.889254 -1.469948 -2.195061 -14.793182 6.324821 -5.493491 12.367268 -4.296054 -23.020742 11.979648 1.741661 1.397426 -17.776331 -7.176220 6.599936 
0.471289 40.431602 2.683983 -0.019531 0.000000 0.000000 -12.846507 -1.243732 -9.152667 0.000000 0.000000 0.000000 5.156250 -0.009766 0.000000 0.301906 0.356681 9.199405 1.992188 -2.001953 0.000341 20.563612 -13.182969 -111.866699 -87.319038 1.602818 21.101553 21.171669 -57.321487 15.734148 -2.001953 1.992188 0.000000 60.365013 -51.618683 0.640849 60.404343 -1.417407 20.232853 -22.681116 0.776535 -21.610180 -6.013374 9.766838 17.701925 23.899389 -1.469976 -2.185860 -14.752119 6.327609 -5.493356 12.250313 -4.306324 -23.015022 11.991241 1.734179 1.377849 -17.855295 -7.179565 6.572555 
0.471289 40.431602 2.683983 -0.019531 0.000000 0.000000 -11.180167 -1.448762 -10.745873 0.000000 0.000000 0.000000 5.156250 -0.009766 0.000000 -1.292302 0.700284 10.791870 1.992188 -2.001953 0.000341 17.465258 -22.727724 -109.978355 -81.888550 1.597245 20.915674 21.171669 -57.321487 15.734148 -2.001953 1.992188 0.000000 60.098030 -48.930454 1.657760 59.450275 -1.396552 20.204525 -22.894114 1.097376 -21.830812 -6.541530 9.770211 17.669491 23.977259 -1.469865 -2.199670 -14.328691 6.327627 -5.334011 11.153443 -4.569324 -23.003057 11.991242 1.734173 1.377849 -18.307295 -7.157202 6.398114 
0.471289 40.431602 2.683983 -0.019531 0.000000 0.000000 -9.512463 -1.602688 -12.348678 0.000000 0.000000 0.000000 5.156250 -0.009766 0.000000 -2.874563 1.096959 12.375418 1.992188 -2.001953 0.000341 13.720404 -32.138859 -107.306076 -76.457344 1.571316 20.734333 21.171669 -57.321487 15.734148 -2.001953 1.992188 0.000000 59.901325 -46.235260 2.629538 58.488228 -1.388098 20.179066 -23.099709 1.420655 -22.052786 -7.049391 9.781121 17.657049 24.054087 -1.475746 -2.234067 -13.943458 6.328503 -5.174229 10.051451 -4.842062 -23.007246 11.991244 1.734162 1.377848 -18.784382 -7.156541 6.209417 
0.471289 40.431602 2.683983 -0.019531 0.000000 0.000000 -7.245819 -1.701940 -14.489236 0.000000 0.000000 0.000000 5.156250 -0.009766 0.000000 -5.005474 1.683252 14.459662 1.992188 -2.001953 0.000341 10.280307 -39.323750 -104.196899 -73.107407 1.543840 20.625111 20.261765 -56.495365 16.316341 -2.001953 1.992188 0.000000 59.774891 -42.715996 3.717957 57.341679 -1.361339 20.135580 -23.325682 1.851821 -22.349520 -7.723335 9.713219 17.600760 24.055119 -1.469962 -2.213520 -13.350514 6.315795 -4.941404 8.767713 -5.165543 -23.015842 13.589180 1.704597 1.489738 -19.094429 -7.134173 6.017905 
0.471289 40.431602 2.683983 -0.019531 0.000000 0.000000 -4.971350 -1.731131 -16.628923 0.000000 0.000000 0.000000 5.156250 -0.009766 0.000000 -7.115378 2.350008 16.528217 1.992188 -2.001953 0.000341 5.849902 -46.325294 -100.085518 -69.761238 1.513413 20.510923 19.385965 -55.664875 16.855066 -2.001953 1.992188 0.000000 59.726440 -39.199085 4.753366 56.192169 -1.347187 20.098585 -23.566950 2.289919 -22.643375 -8.378242 9.666322 17.575291 24.055120 -1.469959 -2.213519 -12.792572 6.304433 -4.697972 7.473073 -5.494283 -23.018476 15.203455 1.663337 1.619853 -19.398281 -7.086865 5.807721 
0.471289 40.431602 2.683983 -0.019531 0.000000 0.000000 -2.970685 -1.657726 -18.504177 0.000000 0.000000 0.000000 5.156250 -0.009766 0.000000 -8.963897 2.985674 18.307440 1.992188 -2.001953 0.000341 1.129433 -52.250252 -95.247955 -66.700920 1.481242 20.414356 19.955156 -56.097805 16.264885 -2.001953 1.992188 0.000000 59.718822 -36.219692 5.604930 55.349880 -1.336086 20.072435 -23.724899 2.632905 -22.919594 -8.925784 9.570155 17.571125 23.986513 -1.466538 -2.218988 -12.250937 6.282421 -4.425988 6.460039 -5.759232 -22.983282 16.314924 1.636424 1.675653 -19.495796 -7.079793 5.673119 
0.471289 40.431602 2.683983 -0.019531 0.000000 0.000000 -0.955863 -1.528934 -20.369129 0.000000 0.000000 0.000000 5.156250 -0.009766 0.000000 -10.795588 3.678829 20.072723 1.992188 -2.001953 0.000341 -5.237288 -57.836807 -88.776588 -63.638527 1.441353 20.321688 20.544836 -56.525124 15.664614 -2.001953 1.992188 0.000000 59.759361 -33.239227 6.441607 54.502750 -1.318512 20.052914 -23.881372 2.970455 -23.184053 -9.479302 9.476435 17.560282 23.917564 -1.475587 -2.217113 -11.672915 6.267302 -4.185764 5.448184 -6.034848 -22.964333 17.415325 1.606846 1.739895 -19.586124 -7.054663 5.527333 
0.471289 40.431602 2.683983 -0.019531 0.000000 0.000000 -0.080583 -1.457202 -21.159578 0.000000 0.000000 0.000000 5.156250 -0.009766 0.000000 -11.590238 3.989989 20.815071 1.992188 -2.001953 0.000341 -7.285859 -60.462891 -85.985672 -59.940697 1.390529 20.203722 31.787413 -63.573086 6.260906 -2.001953 1.992188 0.000000 59.758636 -31.975241 6.838353 54.196301 -1.307392 20.045427 -23.960382 3.073630 -23.349695 -9.693059 9.415956 17.556032 23.849798 -1.469876 -2.202711 -11.458193 6.284569 -4.077729 5.032963 -6.157589 -22.961300 17.837515 1.597272 1.760846 -19.565784 -7.047359 5.476324 
0.471289 40.431602 2.683983 -0.019531 0.000000 0.000000 0.785526 -1.367758 -21.950068 0.000000 0.000000 0.000000 5.156250 -0.009766 0.000000 -12.369406 4.315441 21.558767 1.992188 -2.001953 0.000341 -9.803538 -63.031410 -82.747536 -56.239693 1.326391 20.092499 49.347488 -69.251724 -9.500915 -2.001953 1.992188 0.000000 59.771423 -30.711740 7.235270 53.892735 -1.304974 20.036333 -24.048964 3.172551 -23.515974 -9.921830 9.365081 17.543058 23.790779 -1.469786 -2.209330 -11.203257 6.290869 -3.966024 4.617372 -6.277876 -22.956436 18.249788 1.587661 1.781224 -19.558271 -7.025530 5.434122 
0.471289 40.431602 2.683983 -0.019531 0.000000 0.000000 0.665540 -1.368883 -21.832924 0.000000 0.000000 0.000000 5.156250 -0.009766 0.000000 -12.278231 4.273180 21.449495 1.992188 -2.001953 0.000341 -9.268119 -62.239948 -82.697266 -59.249413 1.379462 20.180857 40.782097 -67.026802 -1.718288 -2.001953 1.992188 0.000000 59.723831 -30.894442 7.296649 53.927742 -1.307707 20.035801 -24.093092 3.120802 -23.568542 -9.889959 9.370193 17.543037 23.800911 -1.469811 -2.200129 -11.240505 6.281573 -3.990600 4.666114 -6.268199 -22.955225 18.200466 1.587574 1.788360 -19.565723 -7.041825 5.446225 
0.471289 40.431602 2.683983 -0.019531 0.000000 0.000000 0.558931 -1.379074 -21.715775 0.000000 0.000000 0.000000 5.156250 -0.009766 0.000000 -12.181407 4.222021 21.330503 1.992188 -2.001953 0.000341 -8.738429 -61.449680 -82.641098 -62.247639 1.420031 20.276440 33.726902 -64.431946 4.546093 -2.001953 1.992188 0.000000 59.666756 -31.071619 7.350158 53.974327 -1.316610 20.030933 -24.133974 3.056648 -23.625870 -9.870190 9.389267 17.552902 23.819908 -1.479626 -2.203018 -11.255757 6.274979 -4.015461 4.713996 -6.248075 -22.952850 18.151491 1.587508 1.785768 -19.566824 -7.036564 5.449352 
0.471289 40.431602 2.683983 -0.019531 0.000000 0.000000 0.210051 -1.409513 -21.383860 0.000000 0.000000 0.000000 5.156250 -0.009766 0.000000 -11.869349 4.084813 21.023018 1.992188 -2.001953 0.000341 -7.075588 -59.995213 -83.670090 -65.912949 1.468215 20.391970 27.220695 -61.158592 10.163863 -2.001953 1.992188 0.000000 59.682663 -31.590923 7.143966 54.094608 -1.316395 20.042215 -24.091795 3.034378 -23.557507 -9.780998 9.396594 17.554401 23.830244 -1.469852 -2.201678 -11.351971 6.280853 -4.051666 4.876536 -6.186046 -22.975002 17.993931 1.597252 1.778844 -19.577177 -7.038563 5.470179 
0.471289 40.431602 2.683983 -0.019531 0.000000 0.000000 -0.129643 -1.440124 -21.042187 0.000000 0.000000 0.000000 5.156250 -0.009766 0.000000 -11.566208 3.947148 20.705912 1.992188 -2.001953 0.000341 -5.533337 -58.522610 -84.576202 -69.577805 1.518160 20.509653 21.948229 -57.642097 14.521131 -2.001953 1.992188 0.000000 59.709343 -32.110195 6.930999 54.211342 -1.314824 20.047241 -24.049215 3.016000 -23.480778 -9.694857 9.429062 17.546486 23.859926 -1.469900 -2.193510 -11.452249 6.278293 -4.103240 5.038643 -6.152978 -22.980080 17.836817 1.605496 1.761951 -19.568640 -7.034964 5.495176 
0.471289 40.431602 2.683983 -0.019531 0.000000 0.000000 -0.656320 -1.481652 -20.524801 0.000000 0.000000 0.000000 5.156250 -0.009766 0.000000 -11.091149 3.748694 20.221397 1.992188 -2.001953 0.000341 -3.911263 -57.395172 -85.433693 -71.817970 1.531657 20.574713 21.229923 -57.101822 15.129574 -2.001953 1.992188 0.000000 59.722790 -32.908161 6.632765 54.421238 -1.314980 20.053181 -24.000273 2.968173 -23.371593 -9.550006 9.461413 17.559464 23.888771 -1.465970 -2.213741 -11.603100 6.281874 -4.159543 5.276137 -6.068166 -22.999090 17.582668 1.594158 1.756728 -19.567392 -7.044793 5.511604 
0.471289 40.431602 2.683983 -0.019531 0.000000 0.000000 -1.187046 -1.514130 -20.007427 0.000000 0.000000 0.000000 5.156250 -0.009766 0.000000 -10.609313 3.557864 19.737120 1.992188 -2.001953 0.000341 -2.380175 -56.269386 -86.205658 -74.051704 1.557575 20.650162 20.536514 -56.555870 15.715167 -2.001953 1.992188 0.000000 59.743214 -33.708710 6.338662 54.626072 -1.327067 20.062630 -23.943016 2.920088 -23.270840 -9.412601 9.489233 17.542440 23.928375 -1.469795 -2.197086 -11.758554 6.274192 -4.232794 5.530671 -6.011361 -22.991060 17.327482 1.606742 1.725495 -19.565571 -7.062661 5.556917 
0.471289 40.431602 2.683983 -0.019531 0.000000 0.000000 -1.865255 -1.557181 -19.353134 0.000000 0.000000 0.000000 5.156250 -0.009766 0.000000 -9.988596 3.303769 19.115498 1.992188 -2.001953 0.000341 -0.985745 -55.245182 -86.787178 -76.185371 1.571198 20.720089 20.192442 -56.289959 16.022329 -2.001953 1.992188 0.000000 59.760090 -34.734379 5.984982 54.893688 -1.325756 20.068705 -23.880148 2.838464 -23.147100 -9.234613 9.523878 17.555347 23.957352 -1.469822 -2.208352 -11.951893 6.277572 -4.310729 5.861778 -5.922329 -23.008017 16.972965 1.613469 1.736942 -19.557957 -7.056231 5.594841 
